PERFORMER "Marty Friedman"
TITLE "Dragon's Kiss"
FILE "CDImage.ape" WAVE
  TRACK 01 AUDIO
    TITLE "Saturation Point"
    PERFORMER "Marty Friedman"
    INDEX 01 00:00:00
  TRACK 02 AUDIO
    TITLE "Dragon Mistress"
    PERFORMER "Marty Friedman"
    INDEX 01 04:52:20
  TRACK 03 AUDIO
    TITLE "Evil Thrill"
    PERFORMER "Marty Friedman"
    INDEX 00 08:31:73
    INDEX 01 08:33:30
  TRACK 04 AUDIO
    TITLE "Namida (Tears)"
    PERFORMER "Marty Friedman"
    INDEX 00 14:02:58
    INDEX 01 14:04:13
  TRACK 05 AUDIO
    TITLE "Anvils"
    PERFORMER "Marty Friedman"
    INDEX 01 16:47:33
  TRACK 06 AUDIO
    TITLE "Jewel"
    PERFORMER "Marty Friedman"
    INDEX 00 19:24:28
    INDEX 01 19:25:33
  TRACK 07 AUDIO
    TITLE "Forbidden City"
    PERFORMER "Marty Friedman"
    INDEX 00 23:29:55
    INDEX 01 23:30:65
  TRACK 08 AUDIO
    TITLE "Thunder March"
    PERFORMER "Marty Friedman"
    INDEX 00 31:47:30
    INDEX 01 31:49:18
